<svg xmlns:dc="http://purl.org/dc/elements/1.1/" xmlns:cc="http://creativecommons.org/ns#" xmlns:rdf="http://www.w3.org/1999/02/22-rdf-syntax-ns#" xmlns:svg="http://www.w3.org/2000/svg" xmlns="http://www.w3.org/2000/svg" xmlns:xlink="http://www.w3.org/1999/xlink" xmlns:sodipodi="http://sodipodi.sourceforge.net/DTD/sodipodi-0.dtd" xmlns:inkscape="http://www.inkscape.org/namespaces/inkscape" version="1.1" inkscape:version="0.48.4 r9939" width="197.7271270751953" height="178.82398986816406" xml:space="preserve" sodipodi:docname="itchio.svg" inkscape:export-filename="/home/leafo/code/sites/itch.io/static/images/itchio-black.png" inkscape:export-xdpi="90" inkscape:export-ydpi="90" style=""><rect id="backgroundrect" width="100%" height="100%" x="0" y="0" fill="none" stroke="none"/><metadata id="metadata3010"><rdf:RDF><cc:Work rdf:about=""><dc:format>image/svg+xml</dc:format><dc:type rdf:resource="http://purl.org/dc/dcmitype/StillImage"/><dc:title/></cc:Work></rdf:RDF></metadata><defs id="defs3008"><clipPath clipPathUnits="userSpaceOnUse" id="clipPath3018"><path d="m 11.248,336.111 578.139,0 0,477.307 -578.139,0 0,-477.307 z" id="path3020" inkscape:connector-curvature="0"/></clipPath><clipPath clipPathUnits="userSpaceOnUse" id="clipPath3032"><path d="m 0,0 595.275,0 0,841.89 L 0,841.89 0,0 z" id="path3034" inkscape:connector-curvature="0"/></clipPath><clipPath clipPathUnits="userSpaceOnUse" id="clipPath3040"><path d="m 69.7139,645.352 461.0151,0 0,-147.157 -461.0151,0 0,147.157 z" id="path3042" inkscape:connector-curvature="0"/></clipPath><clipPath clipPathUnits="userSpaceOnUse" id="clipPath3044"><path d="m 69.7139,645.352 461.0151,0 0,-147.157 -461.0151,0 0,147.157 z" id="path3046" inkscape:connector-curvature="0"/></clipPath><clipPath clipPathUnits="userSpaceOnUse" id="clipPath3048"><path d="m 0,0 936.382,0 0,289.754 L 0,289.754 0,0 z" id="path3050" inkscape:connector-curvature="0"/></clipPath><pattern patternTransform="matrix(0.49234,-0.00238037,0,-0.500183,69.7139,500.422)" patternUnits="userSpaceOnUse" x="0" y="0" width="936.3820190429688" height="289.7539978027344" id="pattern3052"><g id="g3054"><g clip-path="url(#clipPath3048)" id="g3056"><g id="g3058"><g id="g3060"><image sodipodi:absref="/home/leafo/Desktop/itchio/itchio_img1.png" id="image3062" height="1" width="1" transform="matrix(936.3819,0,0,-289.75383,0,289.75383) " stroke-width="0" xlink:href="itchio/itchio_img1.png"/></g></g></g></g></pattern><mask maskUnits="userSpaceOnUse" x="0" y="0" width="1" height="1" id="mask3064"><g id="g3066"><g clip-path="url(#clipPath3040)" id="g3068" style="opacity: 0.697998;"><path d="m 69.714,645.352 461.016,0 0,-147.156 -461.016,0 0,147.156 z" style="fill: rgb(0, 0, 0); fill-opacity: 1; fill-rule: nonzero; stroke: none;" id="path3070" inkscape:connector-curvature="0"/><g id="g3072"><g id="g3074"/><g id="g3076"><g clip-path="url(#clipPath3044)" id="g3078"><path d="m 69.714,498.195 461.016,0 0,147.156 -461.016,0 0,-147.156 z" style="fill: url(&quot;#pattern3052&quot;); fill-opacity: 1; fill-rule: evenodd; stroke: none;" id="path3080" inkscape:connector-curvature="0"/></g></g></g></g></g></mask><clipPath clipPathUnits="userSpaceOnUse" id="clipPath3086"><path d="m 69.7139,645.352 461.0151,0 0,-147.157 -461.0151,0 0,147.157 z" id="path3088" inkscape:connector-curvature="0"/></clipPath><clipPath clipPathUnits="userSpaceOnUse" id="clipPath3102"><path d="m 89.806,612.268 0,-18.478 c 1.063,-0.308 2.188,-0.472 3.35,-0.472 l 0,0 c 3.327,0 6.349,1.352 8.543,3.534 l 0,0 c 2.2,2.187 3.573,5.202 3.596,8.512 l 0,0 -0.009,0 0,0.016 4.144,0.008 0,-0.008 0.008,0 0,-0.016 -0.007,-0.007 c 0.023,-3.307 1.394,-6.315 3.588,-8.5 l 0,0 c 2.195,-2.184 5.22,-3.539 8.549,-3.539 l 0,0 c 3.327,0 6.35,1.352 8.543,3.534 l 0,0 c 2.2,2.187 3.573,5.202 3.596,8.512 l 0,0 -0.008,0 0,0.016 4.144,0.008 0,-0.008 0.007,0 0,-0.016 -0.007,-0.007 c 0.024,-3.307 1.395,-6.315 3.588,-8.5 l 0,0 c 2.195,-2.184 5.221,-3.539 8.549,-3.539 l 0,0 c 3.327,0 6.35,1.352 8.544,3.533 l 0,0 c 2.2,2.188 3.572,5.203 3.595,8.513 l 0,0 -0.008,0 0,0.016 4.144,0.008 0,-0.008 0.007,0 0,-0.016 -0.007,-0.007 c 0.024,-3.307 1.396,-6.315 3.588,-8.5 l 0,0 c 2.196,-2.184 5.222,-3.539 8.55,-3.539 l 0,0 c 3.327,0 6.349,1.352 8.543,3.533 l 0,0 c 2.2,2.188 3.573,5.203 3.595,8.513 l 0,0 -0.008,0 0,0.016 4.144,0.008 0,-0.008 0.008,0 0,-0.016 -0.008,-0.007 c 0.025,-3.307 1.395,-6.315 3.589,-8.5 l 0,0 c 2.195,-2.184 5.221,-3.539 8.55,-3.539 l 0,0 c 2.147,0 4.17,0.567 5.926,1.559 l 0,0 0,17.39 0,10e-4 -122.926,0 z m 100.051,-18.352 c -2.95,-2.931 -7.007,-4.751 -11.464,-4.751 l 0,0 c -4.46,0 -8.52,1.823 -11.469,4.758 l 0,0 c -1.069,1.065 -1.994,2.278 -2.737,3.603 l 0,0 c -0.745,-1.328 -1.671,-2.543 -2.743,-3.61 l 0,0 c -2.95,-2.931 -7.006,-4.751 -11.464,-4.751 l 0,0 c -4.46,0 -8.519,1.823 -11.468,4.758 l 0,0 c -1.07,1.063 -1.994,2.278 -2.737,3.603 l 0,0 c -0.745,-1.328 -1.671,-2.543 -2.744,-3.609 l 0,0 c -2.949,-2.933 -7.006,-4.752 -11.463,-4.752 l 0,0 c -4.46,0 -8.52,1.823 -11.469,4.758 l 0,0 c -1.069,1.063 -1.993,2.278 -2.737,3.603 l 0,0 c -0.744,-1.328 -1.671,-2.543 -2.742,-3.609 l 0,0 c -2.95,-2.933 -7.007,-4.752 -11.464,-4.752 l 0,0 c -1.147,0 -2.269,0.121 -3.35,0.35 l 0,0 0,-79.686 122.926,0 0,10e-4 0,80.457 c -1.839,-0.723 -3.838,-1.122 -5.926,-1.122 l 0,0 c -4.462,0 -8.521,1.823 -11.471,4.758 l 0,0 c -1.069,1.065 -1.993,2.277 -2.736,3.603 l 0,0 c -0.745,-1.329 -1.671,-2.543 -2.742,-3.61" id="path3104" inkscape:connector-curvature="0"/></clipPath><linearGradient x1="0" y1="0" x2="1" y2="0" gradientUnits="userSpaceOnUse" gradientTransform="matrix(-45.096283,66.742752,69.362305,46.866257,174.09131,527.11914)" spreadMethod="pad" id="linearGradient3110"><stop style="stop-opacity: 1; stop-color: rgb(155, 222, 227);" offset="0" id="stop3112"/><stop style="stop-opacity: 1; stop-color: rgb(255, 255, 255);" offset="1" id="stop3114"/></linearGradient><clipPath clipPathUnits="userSpaceOnUse" id="clipPath3122"><path d="m 0,0 595.275,0 0,841.89 L 0,841.89 0,0 z" id="path3124" inkscape:connector-curvature="0"/></clipPath><clipPath clipPathUnits="userSpaceOnUse" id="clipPath3130"><path d="m 89.8042,612.269 122.9278,0 0,-56.07 -122.9278,0 0,56.07 z" id="path3132" inkscape:connector-curvature="0"/></clipPath><clipPath clipPathUnits="userSpaceOnUse" id="clipPath3134"><path d="m 89.8042,612.269 122.9278,0 0,-56.07 -122.9278,0 0,56.07 z" id="path3136" inkscape:connector-curvature="0"/></clipPath><clipPath clipPathUnits="userSpaceOnUse" id="clipPath3138"><path d="m 89.804,574.917 0,-54.095 252.378,13.891 0,54.096 -252.378,-13.892 z" id="path3140" inkscape:connector-curvature="0"/></clipPath><mask maskUnits="userSpaceOnUse" x="0" y="0" width="1" height="1" id="mask3142"><g id="g3144"><g clip-path="url(#clipPath3130)" id="g3146"><path d="m 89.804,612.269 122.928,0 0,-56.07 -122.928,0 0,56.07 z" style="fill: rgb(0, 0, 0); fill-opacity: 1; fill-rule: nonzero; stroke: none;" id="path3148" inkscape:connector-curvature="0"/><g id="g3150"><g id="g3152"/><g id="g3154"><g clip-path="url(#clipPath3134)" id="g3156"><g id="g3158"><path d="M89.80380249023438,612.2681884765625 L89.80380249023438,569.5071884765625 L342.18180249023436,583.3991884765625 L342.18180249023436,612.2681884765625 L89.80380249023438,612.2681884765625 z" style="fill: rgb(0, 0, 0); fill-opacity: 1; fill-rule: nonzero; stroke: none;" id="path3160" inkscape:connector-curvature="0"/></g><g id="g3162"><g clip-path="url(#clipPath3138)" id="g3164"><g id="g3166"><image sodipodi:absref="/home/leafo/Desktop/itchio/itchio_img2.png" id="image3168" transform="matrix(-2.9685516,53.932251,257.92093,14.196503,88.51709,520.750987) " height="1" width="1" stroke-width="0" xlink:href="itchio/itchio_img2.png"/></g></g></g></g></g></g></g></g></mask><clipPath clipPathUnits="userSpaceOnUse" id="clipPath3174"><path d="m 89.8042,612.269 122.9278,0 0,-56.07 -122.9278,0 0,56.07 z" id="path3176" inkscape:connector-curvature="0"/></clipPath><clipPath clipPathUnits="userSpaceOnUse" id="clipPath3202"><path d="m 105.826,584.266 94.755,0 0,-27.337 -94.755,0 0,27.337 z" id="path3204" inkscape:connector-curvature="0"/></clipPath><clipPath clipPathUnits="userSpaceOnUse" id="clipPath3206"><path d="m 105.826,584.266 94.755,0 0,-27.337 -94.755,0 0,27.337 z" id="path3208" inkscape:connector-curvature="0"/></clipPath><clipPath clipPathUnits="userSpaceOnUse" id="clipPath3210"><path d="m 105.826,499.735 183.582,0 0,84.53 -183.582,0 0,-84.53 z" clip-rule="evenodd" id="path3212" inkscape:connector-curvature="0"/></clipPath><clipPath clipPathUnits="userSpaceOnUse" id="clipPath3214"><path d="m 231.432,584.266 -125.605,-20.649 0,-63.881 0,-10e-4 0,0 57.972,0 125.609,20.648 0,63.882 0,10e-4 -57.976,0 z" id="path3216" inkscape:connector-curvature="0"/></clipPath><mask maskUnits="userSpaceOnUse" x="0" y="0" width="1" height="1" id="mask3218"><g id="g3220"><g clip-path="url(#clipPath3202)" id="g3222"><path d="m 105.826,584.266 94.755,0 0,-27.337 -94.755,0 0,27.337 z" style="fill: rgb(0, 0, 0); fill-opacity: 1; fill-rule: nonzero; stroke: none;" id="path3224" inkscape:connector-curvature="0"/><g id="g3226"><g id="g3228"/><g id="g3230"><g clip-path="url(#clipPath3206)" id="g3232"><g id="g3234"><g clip-path="url(#clipPath3210)" id="g3236"><g id="g3238"><path d="M289.05810546875,586.3975219726562 L284.57910546875,613.6465219726563 L92.29710546875,582.0385219726562 L96.77610546874999,554.7895219726563 L289.05810546875,586.3975219726562 z" style="fill: rgb(0, 0, 0); fill-opacity: 1; fill-rule: nonzero; stroke: none;" id="path3240" inkscape:connector-curvature="0"/></g></g></g><g id="g3242"><g clip-path="url(#clipPath3214)" id="g3244"><g id="g3246"><g id="g3248"><image sodipodi:absref="/home/leafo/Desktop/itchio/itchio_img3.png" id="image3250" transform="matrix(-11.750565,71.481995,192.2814,31.608154,107.35204999999999,490.45507599999996) " height="1" width="1" stroke-width="0" xlink:href="itchio/itchio_img3.png"/></g></g></g></g></g></g></g></g></g></mask><clipPath clipPathUnits="userSpaceOnUse" id="clipPath3256"><path d="m 105.826,584.266 94.755,0 0,-27.337 -94.755,0 0,27.337 z" id="path3258" inkscape:connector-curvature="0"/></clipPath><clipPath clipPathUnits="userSpaceOnUse" id="clipPath3272"><path d="m 141.913,561.6 -10.031,-10.76 9.882,0 0,-11.093 19.7,0 0,11.093 10.539,0 -10.031,10.76 -10.03,10.759 -10.029,-10.759 z" id="path3274" inkscape:connector-curvature="0"/></clipPath><linearGradient x1="0" y1="0" x2="1" y2="0" gradientUnits="userSpaceOnUse" gradientTransform="matrix(-9.7993164,28.855469,28.420776,9.6517029,154.10742,549.75439)" spreadMethod="pad" id="linearGradient3280"><stop style="stop-opacity: 1; stop-color: rgb(255, 59, 59);" offset="0" id="stop3282"/><stop style="stop-opacity: 1; stop-color: rgb(254, 254, 254);" offset="1" id="stop3284"/></linearGradient><clipPath clipPathUnits="userSpaceOnUse" id="clipPath3292"><path d="m 0,0 595.275,0 0,841.89 L 0,841.89 0,0 z" id="path3294" inkscape:connector-curvature="0"/></clipPath><clipPath clipPathUnits="userSpaceOnUse" id="clipPath3364"><path d="m 238.636,605.711 20.244,0 0,-51.636 -20.244,0 0,51.636 z" id="path3366" inkscape:connector-curvature="0"/></clipPath><clipPath clipPathUnits="userSpaceOnUse" id="clipPath3368"><path d="m 238.636,605.711 20.244,0 0,-51.636 -20.244,0 0,51.636 z" id="path3370" inkscape:connector-curvature="0"/></clipPath><clipPath clipPathUnits="userSpaceOnUse" id="clipPath3372"><path d="m 364.388,643.63 -125.752,-13.623 0,-107.144 0,0 156.78,0 125.76,13.624 0,107.143 -156.788,0 z" id="path3374" inkscape:connector-curvature="0"/></clipPath><mask maskUnits="userSpaceOnUse" x="0" y="0" width="1" height="1" id="mask3376"><g id="g3378"><g clip-path="url(#clipPath3364)" id="g3380"><path d="m 238.636,605.711 20.245,0 0,-51.636 -20.245,0 0,51.636 z" style="fill: rgb(0, 0, 0); fill-opacity: 1; fill-rule: nonzero; stroke: none;" id="path3382" inkscape:connector-curvature="0"/><g id="g3384"><g id="g3386"/><g id="g3388"><g clip-path="url(#clipPath3368)" id="g3390"><g id="g3392"><g clip-path="url(#clipPath3372)" id="g3394"><g id="g3396"><g id="g3398"><image sodipodi:absref="/home/leafo/Desktop/itchio/itchio_img4.png" id="image3400" transform="matrix(13.291458,-122.68929,-292.1955,-31.654785,519.3584,660.4189449999999) " height="1" width="1" stroke-width="0" xlink:href="itchio/itchio_img4.png"/></g></g></g></g></g></g></g></g></g></mask><clipPath clipPathUnits="userSpaceOnUse" id="clipPath3406"><path d="m 238.636,605.711 20.244,0 0,-51.636 -20.244,0 0,51.636 z" id="path3408" inkscape:connector-curvature="0"/></clipPath><clipPath clipPathUnits="userSpaceOnUse" id="clipPath3422"><path d="m 261.888,596.868 39.559,0 0,-42.796 -39.559,0 0,42.796 z" id="path3424" inkscape:connector-curvature="0"/></clipPath><clipPath clipPathUnits="userSpaceOnUse" id="clipPath3426"><path d="m 261.888,596.868 39.559,0 0,-42.796 -39.559,0 0,42.796 z" id="path3428" inkscape:connector-curvature="0"/></clipPath><clipPath clipPathUnits="userSpaceOnUse" id="clipPath3430"><path d="m 369.948,643.63 -108.06,-11.706 0,-109.057 0.001,-0.004 127.976,0 8.096,0.877 99.964,10.83 0,109.056 -0.001,0.004 -127.976,0 z" id="path3432" inkscape:connector-curvature="0"/></clipPath><mask maskUnits="userSpaceOnUse" x="0" y="0" width="1" height="1" id="mask3434"><g id="g3436"><g clip-path="url(#clipPath3422)" id="g3438"><path d="m 261.888,596.868 39.559,0 0,-42.795 -39.559,0 0,42.795 z" style="fill: rgb(0, 0, 0); fill-opacity: 1; fill-rule: nonzero; stroke: none;" id="path3440" inkscape:connector-curvature="0"/><g id="g3442"><g id="g3444"/><g id="g3446"><g clip-path="url(#clipPath3426)" id="g3448"><g id="g3450"><g clip-path="url(#clipPath3430)" id="g3452"><g id="g3454"><g id="g3456"><image sodipodi:absref="/home/leafo/Desktop/itchio/itchio_img5.png" id="image3458" transform="matrix(13.162506,-121.4989,-246.22993,-26.67514,496.44042,657.3339800000001) " height="1" width="1" stroke-width="0" xlink:href="itchio/itchio_img5.png"/></g></g></g></g></g></g></g></g></g></mask><clipPath clipPathUnits="userSpaceOnUse" id="clipPath3464"><path d="m 261.888,596.868 39.559,0 0,-42.796 -39.559,0 0,42.796 z" id="path3466" inkscape:connector-curvature="0"/></clipPath><clipPath clipPathUnits="userSpaceOnUse" id="clipPath3480"><path d="m 304.689,584.186 51.541,0 0,-29.747 -51.541,0 0,29.747 z" id="path3482" inkscape:connector-curvature="0"/></clipPath><clipPath clipPathUnits="userSpaceOnUse" id="clipPath3484"><path d="m 304.689,584.186 51.541,0 0,-29.747 -51.541,0 0,29.747 z" id="path3486" inkscape:connector-curvature="0"/></clipPath><clipPath clipPathUnits="userSpaceOnUse" id="clipPath3488"><path d="m 367.947,643.63 -63.257,-6.853 0,-113.914 87.175,0 9.261,1.003 53.998,5.851 0,113.911 -0.001,0.002 -87.176,0 z" id="path3490" inkscape:connector-curvature="0"/></clipPath><mask maskUnits="userSpaceOnUse" x="0" y="0" width="1" height="1" id="mask3492"><g id="g3494"><g clip-path="url(#clipPath3480)" id="g3496"><path d="m 304.689,584.186 51.541,0 0,-29.747 -51.541,0 0,29.747 z" style="fill: rgb(0, 0, 0); fill-opacity: 1; fill-rule: nonzero; stroke: none;" id="path3498" inkscape:connector-curvature="0"/><g id="g3500"><g id="g3502"/><g id="g3504"><g clip-path="url(#clipPath3484)" id="g3506"><g id="g3508"><g clip-path="url(#clipPath3488)" id="g3510"><g id="g3512"><g id="g3514"><image sodipodi:absref="/home/leafo/Desktop/itchio/itchio_img6.png" id="image3516" transform="matrix(13.208954,-121.92781,-161.62099,-17.509094,454.11231,652.965334) " height="1" width="1" stroke-width="0" xlink:href="itchio/itchio_img6.png"/></g></g></g></g></g></g></g></g></g></mask><clipPath clipPathUnits="userSpaceOnUse" id="clipPath3522"><path d="m 304.689,584.186 51.541,0 0,-29.747 -51.541,0 0,29.747 z" id="path3524" inkscape:connector-curvature="0"/></clipPath><clipPath clipPathUnits="userSpaceOnUse" id="clipPath3538"><path d="m 360.751,603.384 54.103,0 0,-47.115 -54.103,0 0,47.115 z" id="path3540" inkscape:connector-curvature="0"/></clipPath><clipPath clipPathUnits="userSpaceOnUse" id="clipPath3542"><path d="m 360.751,603.384 54.103,0 0,-47.115 -54.103,0 0,47.115 z" id="path3544" inkscape:connector-curvature="0"/></clipPath><clipPath clipPathUnits="userSpaceOnUse" id="clipPath3546"><path d="m 368.649,643.63 -1.777,-0.192 -21.914,-2.374 0,-118.197 10e-4,-0.004 46.204,0 23.691,2.567 0,118.2 -46.205,0 z" id="path3548" inkscape:connector-curvature="0"/></clipPath><mask maskUnits="userSpaceOnUse" x="0" y="0" width="1" height="1" id="mask3550"><g id="g3552"><g clip-path="url(#clipPath3538)" id="g3554"><path d="m 360.751,603.384 54.104,0 0,-47.115 -54.104,0 0,47.115 z" style="fill: rgb(0, 0, 0); fill-opacity: 1; fill-rule: nonzero; stroke: none;" id="path3556" inkscape:connector-curvature="0"/><g id="g3558"><g id="g3560"/><g id="g3562"><g clip-path="url(#clipPath3542)" id="g3564"><g id="g3566"><g clip-path="url(#clipPath3546)" id="g3568"><g id="g3570"><g id="g3572"><image sodipodi:absref="/home/leafo/Desktop/itchio/itchio_img7.png" id="image3574" transform="matrix(13.192658,-121.77733,-82.016251,-8.8851776,414.31836100000004,648.5781376) " height="1" width="1" stroke-width="0" xlink:href="itchio/itchio_img7.png"/></g></g></g></g></g></g></g></g></g></mask><clipPath clipPathUnits="userSpaceOnUse" id="clipPath3580"><path d="m 360.751,603.384 54.103,0 0,-47.115 -54.103,0 0,47.115 z" id="path3582" inkscape:connector-curvature="0"/></clipPath><clipPath clipPathUnits="userSpaceOnUse" id="clipPath3596"><path d="m 445.769,605.711 20.245,0 0,-43.351 -20.245,0 0,43.351 z" id="path3598" inkscape:connector-curvature="0"/></clipPath><clipPath clipPathUnits="userSpaceOnUse" id="clipPath3600"><path d="m 445.769,605.711 20.245,0 0,-43.351 -20.245,0 0,43.351 z" id="path3602" inkscape:connector-curvature="0"/></clipPath><clipPath clipPathUnits="userSpaceOnUse" id="clipPath3604"><path d="m 371.016,643.63 -77.216,-8.364 0,-112.403 94.997,0 77.217,8.365 0,112.397 -0.001,0.005 -94.997,0 z" id="path3606" inkscape:connector-curvature="0"/></clipPath><mask maskUnits="userSpaceOnUse" x="0" y="0" width="1" height="1" id="mask3608"><g id="g3610"><g clip-path="url(#clipPath3596)" id="g3612"><path d="m 445.769,605.711 20.245,0 0,-43.351 -20.245,0 0,43.351 z" style="fill: rgb(0, 0, 0); fill-opacity: 1; fill-rule: nonzero; stroke: none;" id="path3614" inkscape:connector-curvature="0"/><g id="g3616"><g id="g3618"/><g id="g3620"><g clip-path="url(#clipPath3600)" id="g3622"><g id="g3624"><g clip-path="url(#clipPath3604)" id="g3626"><g id="g3628"><g id="g3630"><image sodipodi:absref="/home/leafo/Desktop/itchio/itchio_img8.png" id="image3632" transform="matrix(13.137772,-121.27063,-183.14748,-19.841156,464.91114000000005,653.802736) " height="1" width="1" stroke-width="0" xlink:href="itchio/itchio_img8.png"/></g></g></g></g></g></g></g></g></g></mask><clipPath clipPathUnits="userSpaceOnUse" id="clipPath3638"><path d="m 445.769,605.711 20.245,0 0,-43.351 -20.245,0 0,43.351 z" id="path3640" inkscape:connector-curvature="0"/></clipPath><clipPath clipPathUnits="userSpaceOnUse" id="clipPath3654"><path d="m 473.069,584.186 50.393,0 0,-18.91 -50.393,0 0,18.91 z" id="path3656" inkscape:connector-curvature="0"/></clipPath><clipPath clipPathUnits="userSpaceOnUse" id="clipPath3658"><path d="m 473.069,584.186 50.393,0 0,-18.91 -50.393,0 0,18.91 z" id="path3660" inkscape:connector-curvature="0"/></clipPath><clipPath clipPathUnits="userSpaceOnUse" id="clipPath3662"><path d="m 362.514,643.63 -7.297,-0.79 -118.867,-12.878 0,-107.095 0,-0.004 160.944,0 126.168,13.668 0,107.099 -160.948,0 z" id="path3664" inkscape:connector-curvature="0"/></clipPath><mask maskUnits="userSpaceOnUse" x="0" y="0" width="1" height="1" id="mask3666"><g id="g3668"><g clip-path="url(#clipPath3654)" id="g3670"><path d="m 473.069,584.186 50.393,0 0,-18.909 -50.393,0 0,18.909 z" style="fill: rgb(0, 0, 0); fill-opacity: 1; fill-rule: nonzero; stroke: none;" id="path3672" inkscape:connector-curvature="0"/><g id="g3674"><g id="g3676"/><g id="g3678"><g clip-path="url(#clipPath3658)" id="g3680"><g id="g3682"><g clip-path="url(#clipPath3662)" id="g3684"><g id="g3686"><g id="g3688"><image sodipodi:absref="/home/leafo/Desktop/itchio/itchio_img9.png" id="image3690" transform="matrix(13.33493,-123.09059,-296.71326,-32.144226,521.59571,660.864276) " height="1" width="1" stroke-width="0" xlink:href="itchio/itchio_img9.png"/></g></g></g></g></g></g></g></g></g></mask><clipPath clipPathUnits="userSpaceOnUse" id="clipPath3696"><path d="m 473.069,584.186 50.393,0 0,-18.91 -50.393,0 0,18.91 z" id="path3698" inkscape:connector-curvature="0"/></clipPath><clipPath clipPathUnits="userSpaceOnUse" id="clipPath3712"><path d="m 89.1001,506.487 123.8089,0 0,-103.174 -123.8089,0 0,103.174 z" id="path3714" inkscape:connector-curvature="0"/></clipPath><clipPath clipPathUnits="userSpaceOnUse" id="clipPath3716"><path d="m 89.1001,506.487 123.8089,0 0,-103.174 -123.8089,0 0,103.174 z" id="path3718" inkscape:connector-curvature="0"/></clipPath><clipPath clipPathUnits="userSpaceOnUse" id="clipPath3720"><path d="m 79.386,476.077 133.522,0 0,97.017 -133.522,0 0,-97.017 z" id="path3722" inkscape:connector-curvature="0"/></clipPath><mask maskUnits="userSpaceOnUse" x="0" y="0" width="1" height="1" id="mask3724"><g id="g3726"><g clip-path="url(#clipPath3712)" id="g3728"><path d="m 89.1,506.487 123.809,0 0,-103.173 -123.809,0 0,103.173 z" style="fill: rgb(0, 0, 0); fill-opacity: 1; fill-rule: nonzero; stroke: none;" id="path3730" inkscape:connector-curvature="0"/><g id="g3732"><g id="g3734"/><g id="g3736"><g clip-path="url(#clipPath3716)" id="g3738"><path d="m 79.386,403.313 133.522,0 0,82.464 -133.522,0 0,-82.464 z" style="fill: rgb(0, 0, 0); fill-opacity: 1; fill-rule: nonzero; stroke: none;" id="path3740" inkscape:connector-curvature="0"/><g id="g3742"><g clip-path="url(#clipPath3720)" id="g3744"><g id="g3746"><image sodipodi:absref="/home/leafo/Desktop/itchio/itchio_img10.png" id="image3748" transform="matrix(0,-97.017441,-133.52258,0,212.90868799999998,573.09375) " height="1" width="1" stroke-width="0" xlink:href="itchio/itchio_img10.png"/></g></g></g></g></g></g></g></g></mask><clipPath clipPathUnits="userSpaceOnUse" id="clipPath3754"><path d="m 89.1001,506.487 123.8089,0 0,-103.174 -123.8089,0 0,103.174 z" id="path3756" inkscape:connector-curvature="0"/></clipPath></defs><sodipodi:namedview pagecolor="#ffffff" bordercolor="#666666" borderopacity="1" objecttolerance="10" gridtolerance="10" guidetolerance="10" inkscape:pageopacity="0" inkscape:pageshadow="2" inkscape:window-width="1525" inkscape:window-height="799" id="namedview3006" showgrid="false" fit-margin-top="10" fit-margin-left="10" fit-margin-right="10" fit-margin-bottom="10" inkscape:zoom="1" inkscape:cx="400.34115" inkscape:cy="63.836055" inkscape:window-x="196" inkscape:window-y="215" inkscape:window-maximized="0" inkscape:current-layer="g3012" inkscape:object-paths="true" showguides="true" inkscape:guide-bbox="true"><inkscape:grid type="xygrid" id="grid3279" empspacing="5" visible="true" enabled="true" snapvisiblegridlinesonly="true" dotted="false"/></sodipodi:namedview><g class="currentLayer" style=""><title>Layer 1</title><g inkscape:groupmode="layer" id="layer1" inkscape:label="parts" sodipodi:insensitive="true" style="display: none;"><g id="g4768"><g id="g4770" style="fill: rgb(213, 118, 159); fill-opacity: 1;" stroke-width="0"><path style="fill: rgb(213, 118, 159); fill-opacity: 1; fill-rule: evenodd; stroke: none;" d="M32.96874632263183,10.000024414062466 C25.302746322631833,18.92625441406244 9.99999632263183,36.718774414062466 9.99999632263183,36.718774414062466 l0,13.062499999999998 c2.0787499999999994,7.496249999999999 8.958749999999998,13.062499999999998 17.093749999999996,13.062499999999998 c9.767499999999998,0 17.749259999999996,-7.982499999999999 17.749999999999996,-17.749999999999996 l0.0006500000000000002,-8.532279999999998 l14.124349999999998,-26.498969999999996 z" id="path4772" inkscape:connector-curvature="0" sodipodi:nodetypes="cccssccc" stroke-width="0"/></g><g id="g4774" style="fill: rgb(0, 0, 0); fill-opacity: 1;" stroke-width="0"><path style="fill: rgb(28, 193, 23); fill-opacity: 1; fill-rule: evenodd; stroke: none;" d="m58.96875016784668,10.0625146484374 l-14.124999999999998,26.499999999999996 l0,8.531249999999998 c0,9.767499999999998 8.013749999999998,17.749999999999996 17.781249999999996,17.749999999999996 c9.767499999999998,0 17.749999999999996,-7.982499999999999 17.749999999999996,-17.749999999999996 l0,-8.374999999999998 l4.531249999999999,-26.593749999999996 z" id="path4776" inkscape:connector-curvature="0" sodipodi:nodetypes="ccsssccc" stroke-width="0"/></g><path sodipodi:nodetypes="ccsssccc" inkscape:connector-curvature="0" id="path4778" d="M84.90625,10.125 L80.375975,36.71301249999988 L80.375,45.09375 c-0.0010000000000000002,9.7675 7.9825,17.75 17.75,17.75 c9.76625,0 17.75,-7.9825 17.75,-17.75 l0,-8.40625 c-1.262975,-8.847574999999999 -5.125,-26.53125 -5.125,-26.53125 z" style="fill: rgb(83, 199, 218); fill-opacity: 1; fill-rule: evenodd; stroke: none;" stroke-width="0"/><g id="g4780" style="fill: rgb(124, 194, 129); fill-opacity: 1;" stroke-width="0"><path style="fill: rgb(124, 194, 129); fill-opacity: 1; fill-rule: evenodd; stroke: none;" d="m110.71875103759763,10.15621276855461 l5.156249999999999,26.542969999999997 l0,8.394529999999998 c0,9.767499999999998 8.014999999999999,17.749999999999996 17.781249999999996,17.749999999999996 c9.767499999999998,0 17.749999999999996,-7.982499999999999 17.749999999999996,-17.749999999999996 l0,-8.374999999999998 l-14.937499999999998,-26.499999999999996 z" id="path4782" inkscape:connector-curvature="0" sodipodi:nodetypes="ccsssccc" stroke-width="0"/></g><g id="g4784" style="fill: rgb(231, 148, 242); fill-opacity: 1;" stroke-width="0"><path style="fill: rgb(231, 148, 242); fill-opacity: 1; fill-rule: evenodd; stroke: none;" d="m136.46875396728518,10.218717651367115 l14.937499999999998,26.499999999999996 l0,8.374999999999998 c0,9.767499999999998 7.983749999999999,17.749999999999996 17.749999999999996,17.749999999999996 c9.767499999999998,0 17.749999999999996,-7.982499999999999 17.749999999999996,-17.749999999999996 l0,-8.374999999999998 l-24.781249999999996,-26.437449999999995 z" id="path4786" inkscape:connector-curvature="0" sodipodi:nodetypes="ccsssccc" stroke-width="0"/></g></g></g><g id="g3012" inkscape:groupmode="layer" inkscape:label="itchio" class="selected" opacity="1" stroke="#e8e841" stroke-opacity="1" fill="#ac3232" fill-opacity="1"><path style="fill-rule: evenodd;" d="m33,9.53125 l-23,27 l0,7.6875 c0,9.746599999999999 8.95875,18.3125 17.09375,18.3125 c9.7675,0 17.9055125,-8.2325 17.90625,-18 c0,9.7675 7.8575,18 17.625,18 c9.7675,0 17.375,-8.2325 17.375,-18 c-0.001,9.7675 8.3575,18 18.125,18 c9.76625,0 17.875,-8.2325 17.875,-18 c0,9.7675 7.890000000000001,18 17.65625,18 c9.7675,0 17.34375,-8.2325 17.34375,-18 c0,9.7675 8.39,18 18.15625,18 c9.7675,0 17.84375,-8.2325 17.84375,-18 l0,-8 l-25,-27 c-43.646625,-0.11575000000000003 -129,0 -129,0 z" id="path3298" inkscape:connector-curvature="0" sodipodi:nodetypes="cccscscscscssccc" stroke-width="0" opacity="1" stroke="#e8e841" stroke-opacity="1" fill="#ac3232" fill-opacity="1"/><g id="g4713" stroke-width="0" opacity="1" stroke="#e8e841" stroke-opacity="1" fill="#ac3232" fill-opacity="1"><path inkscape:connector-curvature="0" id="path3336" style="fill-rule: nonzero;" d="m209.38625000000002,76.20000000000005 l24.14125,0 l0,71.55375000000001 l-24.14125,0 l0,-71.55375000000001 zm12.216249999999999,-5.8175 c-4.07125,0 -7.1975,-1.01875 -9.379999999999999,-3.05375 c-2.1812500000000004,-2.03625 -3.2725000000000004,-4.751250000000001 -3.2725000000000004,-8.145 c0,-3.1987500000000004 1.09125,-5.915 3.2725000000000004,-8.143749999999999 c2.1825,-2.23 5.30875,-3.345 9.379999999999999,-3.345 c4.0725,0 7.199999999999999,1.1150000000000002 9.38125,3.345 c2.1812500000000004,2.22875 3.2725000000000004,4.945 3.2725000000000004,8.143749999999999 c0,3.39375 -1.09125,6.108750000000001 -3.2725000000000004,8.145 c-2.1812500000000004,2.035 -5.30875,3.05375 -9.38125,3.05375 " stroke-width="0" opacity="1" stroke="#e8e841" stroke-opacity="1" fill="#ac3232" fill-opacity="1"/><path d="m268.703125,149.2087499999999 c-6.98125,0 -12.24,-1.8662500000000002 -15.780000000000001,-5.59875 c-3.53875,-3.73375 -5.30875,-8.945 -5.30875,-15.634999999999998 l0,-33.886250000000004 l-9.5975,0 l0,-17.88875 l9.5975,0 l0,-17.4525 l24.1425,0 l0,17.4525 l15.707500000000001,0 l0,17.88875 l-15.707500000000001,0 l0,30.396250000000002 c0,2.23 0.46125000000000005,3.805 1.3825,4.72625 c0.9212500000000001,0.9212500000000001 2.3512500000000003,1.38125 4.29,1.38125 c2.6174999999999997,0 5.477499999999999,-1.1625 8.58125,-3.4899999999999998 l5.52625,15.852500000000001 c-2.8112500000000002,1.9387500000000002 -6.01125,3.46625 -9.59875,4.58125 c-3.5875000000000004,1.1150000000000002 -8,1.6725 -13.235000000000001,1.6725 " style="fill-rule: nonzero;" id="path3340" inkscape:connector-curvature="0" stroke-width="0" opacity="1" stroke="#e8e841" stroke-opacity="1" fill="#ac3232" fill-opacity="1"/><path d="m327.14675,149.2087499999999 c-11.0525,0 -19.755,-3.15125 -26.105,-9.45375 c-6.35125,-6.3012500000000005 -9.526250000000001,-15.465 -9.526250000000001,-27.486250000000002 c0,-8.72625 1.7937500000000002,-16.0475 5.38125,-21.96125 c3.68375,-6.108750000000001 8.29,-10.22875 13.8175,-12.3625 c5.81625,-2.23 11.1975,-3.345 16.1425,-3.345 c6.20375,0 11.392500000000002,1.23625 15.56125,3.70875 c4.17,2.4725 7.2475000000000005,5.1625 9.235,8.07125 c1.9875,2.90875 3.4175,5.1875 4.29,6.836250000000001 l-16.725,10.76125 c-1.55125,-3.1987500000000004 -3.2474999999999996,-5.720000000000001 -5.09,-7.5625 c-1.8425,-1.84125 -4.0725,-2.7625 -6.69,-2.7625 c-3.685,0 -6.5925,1.45375 -8.72625,4.362500000000001 c-2.1325,2.90875 -3.2,7.32 -3.2,13.235000000000001 c0,6.39875 1.26125,11.10125 3.7824999999999998,14.1075 c2.52,3.005 6.1075,4.5075 10.76125,4.5075 c3.68375,0 6.7625,-0.6775 9.23625,-2.03625 c2.47125,-1.35625 4.8225,-3.10125 7.0525,-5.234999999999999 l7.70875,18.033749999999998 c-2.3275,1.94 -5.768750000000001,3.855 -10.325,5.745 c-4.55875,1.8912499999999999 -10.084999999999999,2.83625 -16.58125,2.83625 " style="fill-rule: nonzero;" id="path3344" inkscape:connector-curvature="0" stroke-width="0" opacity="1" stroke="#e8e841" stroke-opacity="1" fill="#ac3232" fill-opacity="1"/><path d="m361.59499999999997,147.75424999999996 l0,-97.15125 l24.2875,0 l0,29.52375 c2.03625,-1.455 4.50875,-2.7387499999999996 7.41625,-3.8537500000000002 c2.91,-1.1150000000000002 6.4,-1.6725 10.4725,-1.6725 c8.53125,0 14.9075,2.42375 19.125,7.27125 c4.2175,4.8475 6.32625,11.68375 6.32625,20.50625 l0,45.37625 l-24.2875,0 l0,-42.467499999999994 c0,-4.07125 -0.7750000000000001,-7.05375 -2.3262500000000004,-8.94375 c-1.5525,-1.8912499999999999 -3.58875,-2.83625 -6.108750000000001,-2.83625 c-2.13375,0 -4.12125,0.4850000000000001 -5.96375,1.455 c-1.84125,0.96875 -3.39375,1.98625 -4.65375,3.0525 l0,49.74 l-24.2875,0 z" style="fill-rule: nonzero;" id="path3348" inkscape:connector-curvature="0" stroke-width="0" opacity="1" stroke="#e8e841" stroke-opacity="1" fill="#ac3232" fill-opacity="1"/><path d="m448.54437499999995,149.2087499999999 c-3.87875,0 -6.9325,-1.1150000000000002 -9.161249999999999,-3.345 c-2.23,-2.23 -3.34625,-5.09 -3.34625,-8.58125 c0,-3.4899999999999998 1.1162500000000002,-6.39875 3.34625,-8.725000000000001 c2.22875,-2.3275 5.2825,-3.49125 9.161249999999999,-3.49125 c3.685,0 6.641249999999999,1.16375 8.8725,3.49125 c2.23,2.3262500000000004 3.3437500000000004,5.234999999999999 3.3437500000000004,8.725000000000001 c0,3.49125 -1.09,6.35125 -3.2725000000000004,8.58125 c-2.1812500000000004,2.23 -5.1625,3.345 -8.94375,3.345 " style="fill-rule: nonzero;" id="path3352" inkscape:connector-curvature="0" stroke-width="0" opacity="1" stroke="#e8e841" stroke-opacity="1" fill="#ac3232" fill-opacity="1"/><path inkscape:connector-curvature="0" id="path3354" style="fill-rule: nonzero;" d="m468.3025,76.20000000000005 l24.14125,0 l0,71.55375000000001 l-24.14125,0 l0,-71.55375000000001 zm12.217500000000001,-5.8175 c-4.0725,0 -7.199999999999999,-1.01875 -9.38125,-3.05375 c-2.1812500000000004,-2.03625 -3.27125,-4.751250000000001 -3.27125,-8.145 c0,-3.1987500000000004 1.09,-5.915 3.27125,-8.143749999999999 c2.1812500000000004,-2.23 5.30875,-3.345 9.38125,-3.345 c4.07125,0 7.1975,1.1150000000000002 9.379999999999999,3.345 c2.1812500000000004,2.22875 3.2725000000000004,4.945 3.2725000000000004,8.143749999999999 c0,3.39375 -1.09125,6.108750000000001 -3.2725000000000004,8.145 c-2.1825,2.035 -5.30875,3.05375 -9.379999999999999,3.05375 " stroke-width="0" opacity="1" stroke="#e8e841" stroke-opacity="1" fill="#ac3232" fill-opacity="1"/><path d="m535.618375,149.2087499999999 c-5.623749999999999,0 -10.6175,-0.9450000000000002 -14.98,-2.83625 c-4.3637500000000005,-1.8900000000000001 -8.07125,-4.5075 -11.126249999999999,-7.853750000000001 c-3.05375,-3.345 -5.380000000000001,-7.32 -6.98125,-11.924999999999999 c-1.6,-4.605 -2.4,-9.62375 -2.4,-15.0525 c0,-8.0475 1.74625,-15.077499999999999 5.23625,-21.088749999999997 c3.5875000000000004,-5.91375 8.0725,-10.035 13.45375,-12.3625 c5.380000000000001,-2.3262500000000004 10.98,-3.4899999999999998 16.7975,-3.4899999999999998 c8.3375,0 15.2225,1.9387500000000002 20.65125,5.8175 c5.52625,3.87875 9.405,8.72625 11.635,14.54375 c2.23,5.8175 3.345,11.34375 3.345,16.58 c0,5.42875 -0.8000000000000002,10.447500000000002 -2.4,15.0525 c-1.59875,4.605 -3.9274999999999998,8.58 -6.98125,11.924999999999999 c-3.0525,3.34625 -6.786250000000001,5.96375 -11.1975,7.853750000000001 c-4.41125,1.8912499999999999 -9.42875,2.83625 -15.0525,2.83625 m0,-18.61625 c4.0725,0 7.0287500000000005,-1.7200000000000002 8.87125,-5.1625 c1.84125,-3.44125 2.76375,-8.07125 2.76375,-13.888750000000002 c0,-5.5275 -0.97,-9.93875 -2.91,-13.235000000000001 c-1.9387500000000002,-3.29625 -4.84625,-4.945 -8.725000000000001,-4.945 c-3.78125,0 -6.641249999999999,1.64875 -8.58125,4.945 c-1.9387500000000002,3.29625 -2.90875,7.7075000000000005 -2.90875,13.235000000000001 c0,5.8175 0.9450000000000002,10.447500000000002 2.83625,13.888750000000002 c1.8912499999999999,3.4425 4.77375,5.1625 8.65375,5.1625 " style="fill-rule: nonzero;" id="path3358" inkscape:connector-curvature="0" stroke-width="0" opacity="1" stroke="#e8e841" stroke-opacity="1" fill="#ac3232" fill-opacity="1"/></g><path style="" d="m45,58.02588749999995 c-0.9300000000000002,1.6600000000000001 -2.22375,3.0791125 -3.5625,4.4116125 c-3.6875,3.66625 -8.772499999999999,5.9375 -14.34375,5.9375 c-1.43375,0 -5.09375,-0.8437500000000002 -5.09375,-0.8437500000000002 l0,100 l154,0 l0,-100.5625 c-2.29875,0.90375 -4.23375,1.40625 -6.84375,1.40625 c-5.5775,0 -10.65625,-2.26875 -14.34375,-5.9375 c-1.33625,-1.3312499999999998 -2.4775,-2.8425000000000002 -3.40625,-4.5 c-0.9312500000000001,1.6612500000000003 -2.0987500000000003,3.16625 -3.4375,4.5 c-3.6875,3.6637500000000003 -8.74125,5.9375 -14.3125,5.9375 c-5.575,0 -10.657499999999999,-2.26875 -14.34375,-5.9375 c-1.33625,-1.3312499999999998 -2.50875,-2.84375 -3.4375,-4.5 c-0.9312500000000001,1.6600000000000001 -2.06625,3.16625 -3.40625,4.5 c-3.6875,3.6637500000000003 -8.77125,5.9375 -14.34375,5.9375 c-5.575,0 -10.657499999999999,-2.26875 -14.34375,-5.9375 c-1.3375000000000001,-1.3287499999999999 -2.4775,-2.84375 -3.40625,-4.5 c-0.9312500000000001,1.6600000000000001 -2.09625,3.1674999999999995 -3.4375,4.5 c-3.68625,3.66625 -8.74125,5.9375 -14.3125,5.9375 c-5.575,0 -10.657499999999999,-2.26875 -14.34375,-5.9375 c-1.33625,-1.3287499999999999 -2.3512500000000003,-2.7553625 -3.28125,-4.4116125 zM67.15625,76.5 c6.717499999999999,0 11.495,4.34875 13.1875,10.90625 l37.125,0 c1.69125,-6.557500000000001 6.43875,-10.90625 13.15625,-10.90625 c10.67,0 22.401249999999997,10.95625 26.0625,24.34375 l8.75,31.96875 c3.6625,13.387500000000001 -2.0787500000000003,24.34375 -12.75,24.34375 c-9.3675,0 -19.55,-8.4425 -24.375,-19.5625 l-58.84375,0 c-4.825,11.120000000000001 -15.006250000000001,19.5625 -24.375,19.5625 c-10.67125,0 -16.4125,-10.95625 -12.75,-24.34375 l8.75,-31.96875 c3.6625,-13.387500000000001 15.391250000000001,-24.34375 26.0625,-24.34375 z" id="path3116" inkscape:connector-curvature="0" sodipodi:nodetypes="ccsccccscccscccscccsccsccsccsccsccs" clip-path="none" stroke-width="0" opacity="1" stroke="#e8e841" stroke-opacity="1" fill="#ac3232" fill-opacity="1"/><path d="m85.7381,104.83124999999995 l-12.53875,13.45 l12.3525,0 l0,13.86625 l24.625,0 l0,-13.86625 l13.17375,0 l-12.53875,-13.45 l-12.5375,-13.44875 z" style="" id="path3286" inkscape:connector-curvature="0" sodipodi:nodetypes="cccccccccc" stroke-width="0" opacity="1" stroke="#e8e841" stroke-opacity="1" fill="#ac3232" fill-opacity="1"/></g></g></svg>